<svg xmlns="http://www.w3.org/2000/svg" viewBox="0 0 2000 640" preserveAspectRatio="xMidYMid slice"><defs><linearGradient id="bg" x1="0" y1="0" x2="1" y2="1"><stop offset="0" stop-color="#063553"/><stop offset=".42" stop-color="#084d6b"/><stop offset="1" stop-color="#05324d"/></linearGradient><radialGradient id="glow" cx="50%" cy="50%" r="50%"><stop offset="0" stop-color="#42b7b0" stop-opacity=".28"/><stop offset="1" stop-color="#42b7b0" stop-opacity="0"/></radialGradient><radialGradient id="ocean" cx="34%" cy="30%" r="74%"><stop offset="0" stop-color="#8dd4e9"/><stop offset=".34" stop-color="#2f8fb2"/><stop offset=".72" stop-color="#145d7e"/><stop offset="1" stop-color="#072a47"/></radialGradient><filter id="blur8"><feGaussianBlur stdDeviation="8"/></filter><filter id="blur16"><feGaussianBlur stdDeviation="16"/></filter><clipPath id="earthclip"><circle cx="1860" cy="190" r="350"/></clipPath></defs><rect width="2000" height="640" fill="url(#bg)"/><circle cx="820" cy="170" r="250" fill="url(#glow)"/><circle cx="1210" cy="420" r="280" fill="url(#glow)"/><g fill="none" stroke="#8edfd5" stroke-width="4" opacity=".14" filter="url(#blur8)"><ellipse cx="970" cy="250" rx="170" ry="105"/><ellipse cx="1210" cy="175" rx="110" ry="65" transform="rotate(18 1210 175)"/><ellipse cx="1480" cy="420" rx="140" ry="82" transform="rotate(-12 1480 420)"/></g><g fill="none" stroke="#6dd0c6" stroke-opacity=".34" stroke-width="3"><g transform="translate(48 120)"><ellipse rx="108" ry="67"/><circle cx="-38" cy="-12" r="12"/><circle cx="18" cy="19" r="10"/><circle cx="52" cy="-20" r="8"/><path d="M-88-28c-60-38-78-84-54-124M-105 2c-69 0-117 38-138 88M-68 53c-31 54-33 99-7 143M83-28c61-23 114-10 151 25M95 18c58 20 96 62 105 123"/></g><g transform="translate(48 475) scale(.82)"><ellipse rx="108" ry="67"/><circle cx="-38" cy="-12" r="12"/><circle cx="18" cy="19" r="10"/><circle cx="52" cy="-20" r="8"/><path d="M-88-28c-60-38-78-84-54-124M-105 2c-69 0-117 38-138 88M-68 53c-31 54-33 99-7 143M83-28c61-23 114-10 151 25M95 18c58 20 96 62 105 123"/></g></g><g fill="#a9e8de" fill-opacity=".14" stroke="#d3f3ee" stroke-opacity=".14"><rect x="620" y="80" width="120" height="30" rx="15" transform="rotate(25 680 95)"/><rect x="1120" y="505" width="128" height="30" rx="15" transform="rotate(-28 1184 520)"/><rect x="1410" y="95" width="105" height="26" rx="13" transform="rotate(14 1462 108)"/></g><circle cx="1860" cy="190" r="350" fill="url(#ocean)" stroke="#bde6ed" stroke-opacity=".4" stroke-width="3"/><g clip-path="url(#earthclip)"><path d="M1640 -15c78-28 144-16 192 20 42 32 89 28 132 20 66-12 128 12 160 62 26 41 6 86-34 107-43 22-63 55-61 100 2 61-30 114-89 131-46 14-88-2-120 25-32 27-34 77-81 99-57 27-124-9-147-63-22-52 3-104-30-149-29-39-76-48-96-87-22-44 4-93 41-124 38-31 62-86 133-111z" fill="#6dbc70"/><path d="M1837 327c49-31 103-31 154-7 45 21 91 12 129 4 62-13 108 21 105 72-3 42-44 63-76 83-43 27-61 73-103 104-42 31-104 22-137-14-34-37-31-85-61-121-26-32-22-87 14-121z" fill="#419a5b"/><path d="M1555 149c41-22 83-21 119 0 30 17 39 53 19 79-20 24-61 25-85 43-27 21-70 15-89-14-22-34-5-86 36-108z" fill="#8acb79"/><g fill="none" stroke="#d9f0f2" stroke-opacity=".17" stroke-width="2.5"><ellipse cx="1860" cy="190" rx="270" ry="350"/><ellipse cx="1860" cy="190" rx="155" ry="350"/><ellipse cx="1860" cy="190" rx="350" ry="124"/><ellipse cx="1860" cy="190" rx="350" ry="230"/></g></g><circle cx="1860" cy="190" r="360" fill="none" stroke="#bde6ed" stroke-opacity=".16" stroke-width="18" filter="url(#blur16)"/><g fill="none" stroke="#75d6ca" stroke-opacity=".34" stroke-width="3"><g transform="translate(1980 490) scale(.9) rotate(14)"><ellipse rx="95" ry="56"/><circle cx="-28" cy="-7" r="11"/><circle cx="27" cy="13" r="9"/><path d="M-78-22c-49-36-63-76-46-112M70-23c53-16 99-3 132 33M82 18c45 17 77 52 85 104"/></g></g><rect width="2000" height="640" fill="#001d32" opacity=".05"/></svg>